<?xml version="1.0" encoding="utf-8" standalone="yes"?> <svg width="1000" height="1000" viewBox="-1 -1 39 39" xmlns="http://www.w3.org/2000/svg" xmlns:xlink="http://www.w3.org/1999/xlink" shape-rendering="crispEdges" id="qr code"><rect id="qr background" fill-opacity="1" fill="rgb(255, 255, 255)" x="-1" y="-1" width="39" height="39"></rect><path fill-opacity="1" fill="rgb(0, 0, 0)" id="qr dark pixels" fill-rule="evenodd" d="M 9 0 L 10 0 L 10 2 L 11 2 L 11 1 L 13 1 L 13 2 L 12 2 L 12 4 L 11 4 L 11 3 L 10 3 L 10 4 L 8 4 L 8 3 L 9 3 L 9 2 L 8 2 L 8 1 L 9 1 z M 15 0 L 17 0 L 17 1 L 15 1 z M 18 0 L 19 0 L 19 1 L 18 1 z M 20 0 L 24 0 L 24 1 L 20 1 z M 25 0 L 26 0 L 26 1 L 25 1 z M 17 1 L 18 1 L 18 2 L 17 2 z M 24 1 L 25 1 L 25 3 L 24 3 z M 26 1 L 28 1 L 28 2 L 29 2 L 29 3 L 28 3 L 28 4 L 26 4 L 26 5 L 25 5 L 25 3 L 26 3 z M 14 2 L 15 2 L 15 3 L 14 3 z M 16 2 L 17 2 L 17 3 L 18 3 L 18 2 L 20 2 L 20 3 L 19 3 L 19 4 L 16 4 z M 21 2 L 23 2 L 23 3 L 21 3 z M 20 3 L 21 3 L 21 4 L 20 4 z M 10 4 L 11 4 L 11 7 L 10 7 z M 12 4 L 16 4 L 16 5 L 19 5 L 19 7 L 18 7 L 18 6 L 17 6 L 17 7 L 16 7 L 16 6 L 15 6 L 15 7 L 14 7 L 14 6 L 13 6 L 13 5 L 12 5 z M 19 4 L 20 4 L 20 5 L 19 5 z M 21 4 L 22 4 L 22 5 L 23 5 L 23 8 L 20 8 L 20 5 L 21 5 zM 21 6 L 22 6 L 22 7 L 21 7 z M 23 4 L 24 4 L 24 5 L 23 5 z M 28 4 L 29 4 L 29 7 L 28 7 L 28 6 L 27 6 L 27 7 L 28 7 L 28 9 L 25 9 L 25 8 L 26 8 L 26 5 L 28 5 z M 8 5 L 9 5 L 9 7 L 8 7 z M 24 5 L 25 5 L 25 7 L 24 7 z M 12 6 L 13 6 L 13 7 L 14 7 L 14 8 L 13 8 L 13 9 L 12 9 z M 15 7 L 16 7 L 16 9 L 17 9 L 17 10 L 15 10 L 15 9 L 14 9 L 14 8 L 15 8 z M 0 8 L 5 8 L 5 9 L 6 9 L 6 10 L 8 10 L 8 11 L 9 11 L 9 12 L 7 12 L 7 11 L 6 11 L 6 12 L 4 12 L 4 11 L 3 11 L 3 13 L 2 13 L 2 11 L 0 11 L 0 10 L 2 10 L 2 9 L 0 9 z M 6 8 L 11 8 L 11 9 L 10 9 L 10 10 L 9 10 L 9 9 L 6 9 z M 17 8 L 18 8 L 18 9 L 17 9 z M 29 8 L 30 8 L 30 9 L 29 9 z M 31 8 L 32 8 L 32 11 L 30 11 L 30 10 L 31 10 z M 33 8 L 34 8 L 34 10 L 33 10 z M 35 8 L 36 8 L 36 10 L 37 10 L 37 12 L 36 12 L 36 13 L 32 13 L 32 12 L 35 12 L 35 11 L 34 11 L 34 10 L 35 10 z M 19 9 L 20 9 L 20 10 L 19 10 z M 21 9 L 24 9 L 24 10 L 21 10 z M 28 9 L 29 9 L 29 11 L 30 11 L 30 12 L 31 12 L 31 13 L 30 13 L 30 14 L 31 14 L 31 13 L 32 13 L 32 14 L 33 14 L 33 17 L 29 17 L 29 16 L 30 16 L 30 15 L 29 15 L 29 14 L 28 14 L 28 13 L 29 13 L 29 12 L 28 12 L 28 11 L 27 11 L 27 10 L 28 10 z M 10 10 L 13 10 L 13 11 L 12 11 L 12 13 L 11 13 L 11 11 L 10 11 z M 17 10 L 18 10 L 18 11 L 17 11 z M 20 10 L 21 10 L 21 11 L 20 11 z M 24 10 L 25 10 L 25 11 L 24 11 z M 14 11 L 15 11 L 15 12 L 14 12 z M 16 11 L 17 11 L 17 12 L 16 12 z M 18 11 L 19 11 L 19 12 L 18 12 z M 21 11 L 23 11 L 23 13 L 22 13 L 22 15 L 23 15 L 23 16 L 20 16 L 20 15 L 21 15 L 21 14 L 18 14 L 18 15 L 17 15 L 17 12 L 18 12 L 18 13 L 19 13 L 19 12 L 21 12 z M 26 11 L 27 11 L 27 13 L 26 13 L 26 14 L 28 14 L 28 15 L 29 15 L 29 16 L 27 16 L 27 15 L 25 15 L 25 16 L 27 16 L 27 17 L 26 17 L 26 18 L 25 18 L 25 17 L 24 17 L 24 18 L 23 18 L 23 16 L 24 16 L 24 14 L 25 14 L 25 12 L 26 12 z M 0 12 L 1 12 L 1 13 L 0 13 z M 6 12 L 7 12 L 7 13 L 6 13 z M 1 13 L 2 13 L 2 14 L 1 14 z M 3 13 L 4 13 L 4 14 L 3 14 z M 5 13 L 6 13 L 6 14 L 7 14 L 7 15 L 6 15 L 6 16 L 5 16 z M 9 13 L 10 13 L 10 14 L 9 14 z M 12 13 L 16 13 L 16 15 L 17 15 L 17 16 L 15 16 L 15 15 L 14 15 L 14 16 L 13 16 L 13 17 L 12 17 L 12 15 L 13 15 L 13 14 L 12 14 z M 23 13 L 24 13 L 24 14 L 23 14 z M 2 14 L 3 14 L 3 15 L 2 15 z M 8 14 L 9 14 L 9 15 L 8 15 z M 36 14 L 37 14 L 37 15 L 36 15 z M 7 15 L 8 15 L 8 17 L 6 17 L 6 16 L 7 16 z M 9 15 L 10 15 L 10 16 L 11 16 L 11 17 L 10 17 L 10 18 L 13 18 L 13 19 L 12 19 L 12 21 L 11 21 L 11 20 L 10 20 L 10 21 L 9 21 z M 35 15 L 36 15 L 36 16 L 35 16 z M 0 16 L 3 16 L 3 17 L 4 17 L 4 18 L 5 18 L 5 19 L 4 19 L 4 20 L 5 20 L 5 19 L 6 19 L 6 20 L 8 20 L 8 22 L 7 22 L 7 21 L 6 21 L 6 22 L 7 22 L 7 23 L 6 23 L 6 24 L 5 24 L 5 28 L 8 28 L 8 29 L 4 29 L 4 27 L 3 27 L 3 26 L 4 26 L 4 25 L 3 25 L 3 24 L 2 24 L 2 23 L 4 23 L 4 22 L 5 22 L 5 21 L 4 21 L 4 22 L 3 22 L 3 21 L 2 21 L 2 23 L 0 23 L 0 22 L 1 22 L 1 21 L 0 21 L 0 19 L 1 19 L 1 20 L 3 20 L 3 19 L 2 19 L 2 17 L 0 17 z M 4 16 L 5 16 L 5 17 L 4 17 z M 14 16 L 15 16 L 15 17 L 14 17 z M 17 16 L 18 16 L 18 17 L 17 17 z M 19 16 L 20 16 L 20 17 L 22 17 L 22 18 L 23 18 L 23 20 L 20 20 L 20 22 L 19 22 L 19 19 L 21 19 L 21 18 L 18 18 L 18 17 L 19 17 z M 34 16 L 35 16 L 35 17 L 34 17 z M 36 16 L 37 16 L 37 17 L 36 17 z M 5 17 L 6 17 L 6 18 L 5 18 z M 16 17 L 17 17 L 17 20 L 16 20 L 16 21 L 15 21 L 15 20 L 14 20 L 14 19 L 15 19 L 15 18 L 16 18 z M 28 17 L 29 17 L 29 18 L 28 18 z M 33 17 L 34 17 L 34 18 L 35 18 L 35 17 L 36 17 L 36 18 L 37 18 L 37 20 L 36 20 L 36 21 L 34 21 L 34 20 L 35 20 L 35 19 L 33 19 L 33 21 L 32 21 L 32 20 L 31 20 L 31 21 L 29 21 L 29 20 L 28 20 L 28 19 L 31 19 L 31 18 L 33 18 z M 6 18 L 8 18 L 8 19 L 6 19 z M 27 18 L 28 18 L 28 19 L 27 19 z M 26 19 L 27 19 L 27 21 L 25 21 L 25 20 L 26 20 z M 23 20 L 24 20 L 24 21 L 25 21 L 25 22 L 28 22 L 28 21 L 29 21 L 29 22 L 30 22 L 30 24 L 31 24 L 31 25 L 29 25 L 29 26 L 30 26 L 30 27 L 29 27 L 29 28 L 28 28 L 28 27 L 27 27 L 27 29 L 28 29 L 28 30 L 26 30 L 26 29 L 25 29 L 25 28 L 26 28 L 26 26 L 28 26 L 28 25 L 24 25 L 24 26 L 23 26 L 23 25 L 22 25 L 22 26 L 21 26 L 21 27 L 20 27 L 20 26 L 19 26 L 19 27 L 16 27 L 16 29 L 15 29 L 15 28 L 14 28 L 14 27 L 15 27 L 15 26 L 16 26 L 16 25 L 17 25 L 17 26 L 18 26 L 18 25 L 20 25 L 20 23 L 22 23 L 22 24 L 28 24 L 28 23 L 24 23 L 24 22 L 21 22 L 21 21 L 23 21 z M 12 21 L 15 21 L 15 22 L 16 22 L 16 23 L 17 23 L 17 24 L 16 24 L 16 25 L 14 25 L 14 24 L 15 24 L 15 23 L 14 23 L 14 24 L 13 24 L 13 25 L 12 25 L 12 23 L 13 23 L 13 22 L 12 22 z M 16 21 L 17 21 L 17 22 L 16 22 z M 8 22 L 10 22 L 10 23 L 8 23 z M 17 22 L 19 22 L 19 24 L 18 24 L 18 23 L 17 23 z M 31 22 L 37 22 L 37 25 L 36 25 L 36 26 L 37 26 L 37 28 L 35 28 L 35 26 L 33 26 L 33 25 L 32 25 L 32 24 L 31 24 zM 33 23 L 36 23 L 36 24 L 33 24 z M 7 23 L 8 23 L 8 24 L 11 24 L 11 25 L 9 25 L 9 27 L 6 27 L 6 26 L 8 26 L 8 25 L 6 25 L 6 24 L 7 24 z M 0 24 L 1 24 L 1 29 L 0 29 z M 17 24 L 18 24 L 18 25 L 17 25 z M 10 26 L 13 26 L 13 27 L 12 27 L 12 29 L 11 29 L 11 27 L 10 27 z M 22 26 L 23 26 L 23 27 L 22 27 z M 24 26 L 25 26 L 25 28 L 23 28 L 23 27 L 24 27 z M 32 26 L 33 26 L 33 28 L 32 28 z M 21 27 L 22 27 L 22 28 L 21 28 z M 2 28 L 3 28 L 3 29 L 2 29 z M 9 28 L 10 28 L 10 29 L 9 29 z M 17 28 L 18 28 L 18 29 L 19 29 L 19 28 L 20 28 L 20 29 L 22 29 L 22 30 L 23 30 L 23 32 L 21 32 L 21 30 L 19 30 L 19 31 L 20 31 L 20 32 L 18 32 L 18 30 L 16 30 L 16 29 L 17 29 z M 33 28 L 35 28 L 35 29 L 34 29 L 34 30 L 33 30 z M 8 29 L 9 29 L 9 30 L 10 30 L 10 29 L 11 29 L 11 32 L 10 32 L 10 31 L 8 31 z M 12 29 L 15 29 L 15 30 L 16 30 L 16 32 L 15 32 L 15 31 L 14 31 L 14 32 L 13 32 L 13 33 L 12 33 L 12 31 L 13 31 L 13 30 L 12 30 z M 23 29 L 24 29 L 24 30 L 23 30 z M 25 30 L 26 30 L 26 31 L 25 31 z M 34 30 L 37 30 L 37 31 L 36 31 L 36 32 L 35 32 L 35 31 L 34 31 z M 26 31 L 27 31 L 27 32 L 28 32 L 28 34 L 27 34 L 27 35 L 26 35 L 26 33 L 25 33 L 25 32 L 26 32 z M 8 32 L 10 32 L 10 33 L 9 33 L 9 35 L 10 35 L 10 36 L 11 36 L 11 34 L 13 34 L 13 35 L 12 35 L 12 37 L 8 37 z M 14 32 L 15 32 L 15 33 L 14 33 z M 16 32 L 17 32 L 17 33 L 18 33 L 18 35 L 17 35 L 17 36 L 16 36 L 16 37 L 15 37 L 15 36 L 14 36 L 14 35 L 15 35 L 15 34 L 16 34 z M 33 32 L 35 32 L 35 33 L 33 33 z M 36 32 L 37 32 L 37 37 L 34 37 L 34 36 L 36 36 L 36 35 L 35 35 L 35 33 L 36 33 z M 19 33 L 24 33 L 24 34 L 19 34 z M 30 33 L 33 33 L 33 34 L 30 34 z M 24 34 L 25 34 L 25 35 L 24 35 z M 29 34 L 30 34 L 30 36 L 31 36 L 31 37 L 29 37 L 29 36 L 27 36 L 27 35 L 29 35 z M 19 35 L 22 35 L 22 36 L 23 36 L 23 37 L 21 37 L 21 36 L 19 36 z M 23 35 L 24 35 L 24 36 L 23 36 z M 31 35 L 33 35 L 33 36 L 31 36 z M 24 36 L 26 36 L 26 37 L 24 37 z"></path><path id="qr squares" d="M0,0h7h0v0v7v0h0h-7h0v0v-7v0h0zM1,1h5h0v0v5v0h0h-5h0v0v-5v0h0zM2,2h3h0v0v3v0h0h-3h0v0v-3v0h0z M30,0h7h0v0v7v0h0h-7h0v0v-7v0h0zM31,1h5h0v0v5v0h0h-5h0v0v-5v0h0zM32,2h3h0v0v3v0h0h-3h0v0v-3v0h0z M0,30h7h0v0v7v0h0h-7h0v0v-7v0h0zM1,31h5h0v0v5v0h0h-5h0v0v-5v0h0zM2,32h3h0v0v3v0h0h-3h0v0v-3v0h0zM28,28h5h0v0v5v0h0h-5h0v0v-5v0h0zM29,29h3h0v0v3v0h0h-3h0v0v-3v0h0zM30,30h1h0v0v1v0h0h-1h0v0v-1v0h0z" fill-rule="evenodd" fill-opacity="1" fill="rgb(0, 0, 0)"></path></svg>